<svg xmlns="http://www.w3.org/2000/svg" viewBox="0 0 1899 1531.5"><defs><style>.cls-1{fill:#333;}</style></defs><g id="Text"><path id="D" class="cls-1" d="M77,1365.5H272v21h16v120H272v15H111v-96h34v63H254v-88H103v-16H77Z"/><polygon id="A" class="cls-1" points="347 1530.5 347 1383.5 358 1383.5 358 1367.5 505 1367.5 505 1384.5 521 1384.5 521 1530.5 491 1530.5 491 1483.5 400 1483.5 400 1449.5 490 1449.5 490 1398.5 378 1398.5 378 1530.5 347 1530.5"/><polygon id="T" class="cls-1" points="569 1397.5 569 1367.5 737 1367.5 737 1397.5 669 1397.5 669 1530.5 637 1530.5 637 1397.5 569 1397.5"/><polygon id="A-2" data-name="A" class="cls-1" points="788 1530.5 788 1383.5 799 1383.5 799 1367.5 946 1367.5 946 1384.5 962 1384.5 962 1530.5 932 1530.5 932 1483.5 841 1483.5 841 1449.5 931 1449.5 931 1398.5 819 1398.5 819 1530.5 788 1530.5"/><polygon id="T-2" data-name="T" class="cls-1" points="1016 1397.5 1016 1367.5 1184 1367.5 1184 1397.5 1116 1397.5 1116 1530.5 1084 1530.5 1084 1397.5 1016 1397.5"/><path id="O" class="cls-1" d="M1390,1389.5v-21H1252v20h-15v121h15v21h137v-21h16v-120Zm-16,105H1268v-91h106Z"/><polygon id="R" class="cls-1" points="1459 1367.5 1628 1367.5 1628 1388.5 1641 1388.5 1641 1440.5 1623 1440.5 1623 1494.5 1644 1494.5 1644 1525.5 1610 1525.5 1610 1504.5 1591 1504.5 1591 1483.5 1571 1483.5 1571 1462.5 1496 1462.5 1496 1525.5 1459 1525.5 1459 1430.5 1607 1430.5 1607 1398.5 1459 1398.5 1459 1367.5"/><rect id="I" class="cls-1" x="1697" y="1362.5" width="32" height="169"/><rect id="I-2" data-name="I" class="cls-1" x="1781" y="1362.5" width="32" height="169"/><g id="Pixels"><rect class="cls-1" x="53" y="1334.5" width="24" height="24"/><rect class="cls-1" x="74" y="1297.5" width="16" height="15"/><rect class="cls-1" x="34" y="1316.5" width="18" height="17"/><rect class="cls-1" y="1334.5" width="9" height="9"/><rect class="cls-1" x="32" y="1383.5" width="20" height="20"/><rect class="cls-1" x="1794" y="1360.5" width="25" height="25"/><rect class="cls-1" x="1822" y="1337.5" width="23" height="23"/><rect class="cls-1" x="1847" y="1318.5" width="17" height="17"/><rect class="cls-1" x="1889" y="1336.5" width="10" height="10"/><rect class="cls-1" x="1808" y="1299.5" width="16" height="16"/><rect class="cls-1" x="1846" y="1385.5" width="20" height="20"/></g></g><g id="Torii"><rect class="cls-1" x="1316.15" y="224.34" width="64.5" height="64.49"/><rect class="cls-1" x="1476.77" y="170.68" width="72.59" height="72.62"/><rect class="cls-1" x="1517.12" width="105.13" height="105.13"/><rect class="cls-1" x="1373.3" y="76.28" width="57.72" height="57.72"/><path class="cls-1" d="M356.66,392.66v54.56s38,18.6,189.44,31.82v36.28h21l-.9,100.85h-36.8v26.77H369.74V757.66H563.8L548.3,1245H686.79L673,757.66H942.58v.52h276.73L1212.38,1245h139.87l-24.07-486.82h194.44V643.5H1362.93V616.17h-36.71l-1.32-100.85h21.32V479c151.23-13.22,189.19-31.82,189.19-31.82V392.66c23.61-4.17,54.71-7.89,54.71-7.89V312.15h-72.6V364h-78.65V336.52H1383v18.33h-58.68V316.34c-94.14,11.34-216.62,19.53-374.48,19.68v-.51h-7.21c-520.38,0-657.12-87.83-657.12-87.83L324.86,386S333,388.49,356.66,392.66Zm637.4,101c95.09-.51,141.33-3,206.9-6.57v28.27h21.64l-1,100.85h-37.08V643.5H994.06Zm-303,21.7V487.05c65.89,3.59,111.8,6.06,207.21,6.57V642.94H707.76V616.17h-37l-1.31-100.85Z"/></g></svg>